<?xml version="1.0" standalone="no"?>
<!DOCTYPE svg PUBLIC "-//W3C//DTD SVG 20010904//EN"
 "http://www.w3.org/TR/2001/REC-SVG-20010904/DTD/svg10.dtd">
<svg version="1.0" xmlns="http://www.w3.org/2000/svg"
 width="240.000000pt" height="302.000000pt" viewBox="0 0 240.000000 302.000000"
 preserveAspectRatio="xMidYMid meet">
<metadata>
Created by potrace 1.15, written by Peter Selinger 2001-2017
</metadata>
<g transform="translate(0.000000,302.000000) scale(0.100000,-0.100000)"
fill="#000000" stroke="none">
<path d="M960 2933 c-51 -6 -156 -41 -225 -76 -77 -38 -202 -162 -238 -236
-18 -36 -27 -71 -27 -102 0 -32 -8 -64 -25 -95 -31 -58 -32 -113 -4 -196 19
-57 19 -64 5 -97 -8 -20 -20 -55 -26 -78 -8 -33 -20 -49 -56 -73 -62 -43 -163
-89 -215 -98 -28 -5 -45 -13 -47 -24 -2 -12 10 -17 61 -22 63 -7 65 -8 70 -39
3 -18 9 -44 12 -59 10 -39 -13 -37 -47 4 -14 18 -30 30 -34 25 -7 -6 18 -73
52 -138 11 -22 11 -28 -2 -41 -13 -13 -14 -22 -5 -54 19 -68 14 -119 -15 -153
-33 -39 -54 -39 -99 0 l-35 31 0 -25 c0 -38 35 -74 78 -81 20 -3 65 0 99 7
l62 13 41 -49 c22 -27 40 -54 40 -58 0 -5 -18 -20 -39 -34 -37 -25 -41 -25
-74 -11 -40 16 -57 41 -57 85 0 43 -15 39 -34 -9 -24 -61 -20 -78 30 -127 35
-35 43 -48 32 -54 -20 -13 -40 -11 -60 8 -30 27 -31 8 -2 -56 24 -53 33 -63
64 -71 19 -5 40 -10 45 -10 31 -1 36 -17 19 -60 -13 -32 -14 -45 -6 -48 7 -2
12 -10 12 -18 0 -18 11 -18 36 1 10 8 29 15 41 15 12 0 25 5 28 11 5 6 13 2
23 -13 12 -16 17 -46 17 -103 2 -198 118 -251 287 -130 38 28 47 31 38 15 -6
-12 -10 -32 -8 -46 2 -18 -4 -28 -22 -37 -35 -17 -37 -51 -6 -80 14 -13 34
-42 43 -64 10 -21 35 -54 56 -72 26 -24 37 -41 37 -62 0 -19 7 -32 22 -40 12
-7 151 -34 308 -61 256 -44 295 -48 385 -43 142 8 315 56 315 87 0 6 -11 39
-24 72 -14 34 -28 75 -32 91 l-7 30 22 -28 c28 -34 40 -35 33 -2 -4 23 -1 25
32 25 20 0 36 3 36 6 0 3 -13 24 -29 47 -36 53 -51 105 -51 179 0 50 3 57 23
64 35 10 56 34 63 70 7 38 34 47 34 12 l0 -21 25 23 c30 29 33 15 4 -16 -22
-24 -20 -54 3 -54 50 0 117 88 118 152 0 15 7 31 16 36 12 6 19 31 24 83 4 41
18 99 30 129 46 115 52 144 57 298 4 120 8 152 19 152 18 0 18 5 -2 35 -16 25
-16 25 16 25 24 0 31 4 27 14 -3 8 -1 16 5 18 19 7 0 58 -21 58 -20 0 -56 38
-66 71 -7 21 -35 26 -35 7 -1 -13 -23 12 -42 46 -9 16 -8 18 8 11 41 -16 54
-17 54 -3 0 8 -9 23 -20 33 -24 21 -26 43 -5 51 19 8 19 28 2 43 -11 8 -12 25
-5 73 13 88 1 231 -23 288 -11 26 -42 69 -70 96 -27 26 -49 54 -49 61 0 30
-55 119 -101 164 -76 74 -164 118 -330 163 -31 9 -91 39 -135 68 -69 46 -88
54 -149 61 -83 9 -355 16 -405 10z m335 -513 c177 -30 346 -92 432 -158 23
-17 38 -40 48 -75 14 -46 21 -120 8 -89 -2 6 -16 12 -30 12 -13 0 -43 11 -66
24 -41 24 -45 24 -192 16 -82 -4 -161 -12 -175 -18 -35 -14 -75 -71 -61 -85
18 -18 13 -67 -14 -123 -24 -50 -25 -56 -11 -89 14 -34 38 -46 51 -25 3 5 12
7 19 4 8 -3 23 9 36 31 18 30 21 41 12 60 -13 29 -11 30 49 39 47 7 67 -4 82
-45 4 -11 23 -19 59 -24 29 -5 47 -10 41 -12 -7 -3 -13 -15 -13 -28 0 -22 3
-23 83 -23 45 1 92 -2 105 -6 29 -10 28 -40 -2 -59 -13 -9 -32 -37 -41 -62
-14 -35 -21 -43 -31 -34 -19 16 -37 1 -30 -26 5 -20 1 -25 -28 -35 -57 -18
-86 -69 -72 -126 6 -24 9 -25 54 -19 l47 6 -30 -17 c-16 -9 -40 -25 -52 -36
-22 -20 -22 -20 -53 2 -17 12 -58 33 -92 46 -68 27 -108 58 -108 86 0 14 8 18
34 18 39 0 59 19 54 52 -2 15 -10 23 -23 23 -11 0 -21 7 -23 16 -7 36 -78 49
-146 25 -32 -11 -47 -11 -97 2 -47 12 -62 12 -74 2 -39 -32 1 -77 61 -67 22 4
37 1 45 -10 13 -15 45 -14 83 2 17 8 18 4 13 -46 -3 -30 -8 -64 -12 -76 -5
-16 0 -28 19 -46 l26 -24 -37 -7 c-21 -3 -54 -6 -74 -6 -30 0 -95 -18 -160
-44 -12 -5 -14 0 -11 29 3 27 1 35 -12 35 -15 0 -30 -34 -25 -61 1 -8 -1 -22
-6 -32 -12 -28 8 -40 54 -32 22 4 43 11 47 16 8 14 218 11 232 -3 34 -34 -6
-57 -111 -64 -113 -7 -127 -11 -127 -34 0 -32 41 -50 131 -57 46 -3 99 -12
118 -19 18 -8 44 -14 56 -14 30 0 47 -22 43 -57 -2 -20 -9 -29 -26 -31 -12 -2
-30 -14 -38 -28 -10 -14 -26 -24 -40 -24 -13 0 -24 -5 -24 -10 0 -6 -8 -5 -19
2 -16 10 -23 9 -39 -6 -18 -16 -28 -16 -104 -5 -45 6 -95 18 -109 25 -28 14
-119 110 -119 125 0 5 -8 9 -19 9 -13 0 -20 -9 -24 -30 -5 -22 -12 -30 -28
-30 -20 0 -21 4 -17 51 5 53 -8 99 -29 99 -7 0 -13 5 -13 10 0 6 7 10 15 10
23 0 18 19 -9 29 -13 5 -26 17 -29 25 -4 9 -13 16 -22 16 -8 0 -15 4 -15 10 0
5 6 9 13 7 8 -1 13 14 15 44 3 41 0 47 -20 52 -19 5 -27 19 -42 74 -49 180
-58 313 -30 438 8 39 17 131 19 205 3 74 4 138 5 141 0 3 19 27 41 53 47 53
113 90 197 110 86 21 270 19 407 -4z"/>
<path d="M767 2143 c-46 -7 -75 -42 -70 -83 8 -59 10 -62 35 -48 13 7 25 16
28 19 3 4 25 10 49 14 58 10 51 -7 -19 -42 -94 -48 -109 -113 -26 -113 40 0
47 3 61 29 15 29 15 29 46 14 37 -18 75 -6 87 28 7 19 9 19 21 5 17 -20 61
-20 107 -1 34 14 35 15 32 66 -4 74 -23 85 -168 98 -63 6 -124 12 -135 15 -11
2 -32 1 -48 -1z"/>
<path d="M358 465 c-8 -18 -16 -24 -27 -19 -24 10 -93 23 -124 24 -25 0 -27
-3 -21 -27 18 -76 104 -176 144 -166 11 3 23 9 26 14 3 5 17 6 31 3 25 -7 25
-5 19 27 -3 19 -9 64 -12 102 -7 71 -17 83 -36 42z"/>
<path d="M690 416 c0 -19 -6 -25 -27 -28 -41 -5 -40 -34 4 -119 35 -67 42 -74
68 -74 29 0 30 1 33 58 2 46 -1 64 -18 88 -12 16 -26 45 -31 64 -11 40 -29 47
-29 11z"/>
</g>
</svg>
